%FSDAX24Y24*%
%MOIN*%
%SFA1B1*%

%IPPOS*%
%ADD32C,0.007900*%
%ADD49C,0.003900*%
%ADD51C,0.002000*%
%LNde-130624-1*%
%LPD*%
G54D32*
X061386Y018444D02*
Y021356D01*
X063514*
Y018444D02*
Y021356D01*
X061386Y018444D02*
X063514D01*
G54D49*
X059750Y022853D02*
Y023247D01*
X059553Y023050D02*
X059947D01*
X059250Y019653D02*
Y020047D01*
X059053Y019850D02*
X059447D01*
X060900Y018847D02*
Y019221D01*
X060713Y019034D02*
X061087D01*
X060829Y021900D02*
X061203D01*
X061016Y021713D02*
Y022087D01*
X060900Y020503D02*
Y020897D01*
X060703Y020700D02*
X061097D01*
X062203Y021900D02*
X062597D01*
X062400Y021703D02*
Y022097D01*
X062376Y022859D02*
Y023253D01*
X062179Y023056D02*
X062573D01*
X062203Y024250D02*
X062597D01*
X062400Y024053D02*
Y024447D01*
X065800Y024203D02*
Y024597D01*
X065603Y024400D02*
X065997D01*
X065800Y017553D02*
Y017947D01*
X065603Y017750D02*
X065997D01*
X064400Y020348D02*
Y020741D01*
X064203Y020544D02*
X064597D01*
X064203Y019050D02*
X064597D01*
X064400Y018853D02*
Y019247D01*
Y017553D02*
Y017947D01*
X064203Y017750D02*
X064597D01*
X061103Y017850D02*
X061497D01*
X061300Y017653D02*
Y018047D01*
X061153Y016850D02*
X061547D01*
X061350Y016653D02*
Y017047D01*
X055248Y017200D02*
X055641D01*
X055444Y017003D02*
Y017397D01*
G54D51*
X059376Y023719D02*
X060124D01*
X059376Y022381D02*
X060124D01*
Y023719*
X059376Y022381D02*
Y023719D01*
X058148Y017547D02*
X060352D01*
X058148Y022153D02*
X060352D01*
X058148Y017547D02*
Y022153D01*
X060352Y017547D02*
Y022153D01*
X060605Y018503D02*
X061195D01*
X060605Y019566D02*
X061195D01*
X060605Y018503D02*
Y019566D01*
X061195Y018503D02*
Y019566D01*
X061547Y021605D02*
Y022195D01*
X060484Y021605D02*
Y022195D01*
Y021605D02*
X061547D01*
X060484Y022195D02*
X061547D01*
X060526Y020031D02*
X061274D01*
X060526Y021369D02*
X061274D01*
X060526Y020031D02*
Y021369D01*
X061274Y020031D02*
Y021369D01*
X063069Y021526D02*
Y022274D01*
X061731Y021526D02*
Y022274D01*
Y021526D02*
X063069D01*
X061731Y022274D02*
X063069D01*
X061707Y023726D02*
X063045D01*
X061707Y022387D02*
X063045D01*
Y023726*
X061707Y022387D02*
Y023726D01*
X061731Y023876D02*
Y024624D01*
X063069Y023876D02*
Y024624D01*
X061731D02*
X063069D01*
X061731Y023876D02*
X063069D01*
X065426Y023731D02*
X066174D01*
X065426Y025069D02*
X066174D01*
X065426Y023731D02*
Y025069D01*
X066174Y023731D02*
Y025069D01*
X065426Y018419D02*
X066174D01*
X065426Y017081D02*
X066174D01*
Y018419*
X065426Y017081D02*
Y018419D01*
X063731Y019875D02*
X065069D01*
X063731Y021214D02*
X065069D01*
X063731Y019875D02*
Y021214D01*
X065069Y019875D02*
Y021214D01*
Y018676D02*
Y019424D01*
X063731Y018676D02*
Y019424D01*
Y018676D02*
X065069D01*
X063731Y019424D02*
X065069D01*
X063731Y018419D02*
X065069D01*
X063731Y017081D02*
X065069D01*
Y018419*
X063731Y017081D02*
Y018419D01*
X060631Y017476D02*
Y018224D01*
X061969Y017476D02*
Y018224D01*
X060631D02*
X061969D01*
X060631Y017476D02*
X061969D01*
X060720Y016319D02*
Y017382D01*
X061980Y016319D02*
Y017382D01*
X060720D02*
X061980D01*
X060720Y016319D02*
X061980D01*
X054775Y016826D02*
Y017574D01*
X056114Y016826D02*
Y017574D01*
X054775D02*
X056114D01*
X054775Y016826D02*
X056114D01*
M02*