%FSDAX24Y24*%
%MOIN*%
%SFA1B1*%

%IPPOS*%
%ADD22C,0.020000*%
%ADD24C,0.050000*%
%ADD25C,0.010000*%
%ADD26C,0.098400*%
%ADD27C,0.118100*%
%ADD28C,0.030000*%
%ADD29C,0.050000*%
%ADD30C,0.008000*%
%LNde-130624-1*%
%LPD*%
G54D22*
X063600Y020950D02*
X063650Y021000D01*
G54D24*
X063654Y018450D02*
Y020996D01*
X063650Y021000D02*
X063654Y020996D01*
X062297Y011603D02*
Y011637D01*
X065900Y013300D02*
X068150D01*
X065053Y012453D02*
X065900Y013300D01*
X065053Y011637D02*
Y012453D01*
X066350Y015300D02*
X068150D01*
X065640Y014590D02*
X066350Y015300D01*
X063675Y014590D02*
X065640D01*
X063650Y021000D02*
Y021750D01*
X060250Y020950D02*
X063600D01*
X063650Y021750D02*
X066168Y024269D01*
X068200*
G54D25*
X068200Y022300D02*
Y022892D01*
Y021708D02*
Y022300D01*
X067608D02*
X068200D01*
X068792*
X068150Y019869D02*
X068742D01*
X067558D02*
X068150D01*
Y020461*
Y019276D02*
Y019869D01*
G54D26*
X068200Y022300D03*
Y024269D03*
X068150Y019869D03*
Y017900D03*
X068154Y015300D03*
Y013300D03*
Y011300D03*
X056150Y018866D03*
Y020834D03*
G54D27*
X063675Y014590D03*
X065053Y011637D03*
X062297D03*
X055801D03*
Y014590D03*
G54D28*
X063654Y018450D03*
G54D29*
X060250Y020950D03*
G54D30*
X068832Y024269D02*
D01*
X068830Y024313*
X068825Y024356*
X068818Y024400*
X068807Y024443*
X068793Y024485*
X068777Y024526*
X068758Y024565*
X068735Y024603*
X068711Y024640*
X068684Y024675*
X068654Y024708*
X068622Y024738*
X068589Y024767*
X068553Y024792*
X068516Y024816*
X068477Y024837*
X068436Y024854*
X068395Y024870*
X068352Y024882*
X068309Y024891*
X068266Y024897*
X068222Y024900*
X068177*
X068133Y024897*
X068090Y024891*
X068047Y024882*
X068004Y024870*
X067963Y024854*
X067922Y024837*
X067884Y024816*
X067846Y024792*
X067810Y024767*
X067777Y024738*
X067745Y024708*
X067715Y024675*
X067703Y024659*
Y023879D02*
D01*
X067731Y023845*
X067762Y023813*
X067794Y023784*
X067829Y023757*
X067866Y023732*
X067904Y023710*
X067944Y023691*
X067985Y023674*
X068027Y023661*
X068069Y023650*
X068113Y023643*
X068157Y023638*
X068201Y023637*
X068245Y023638*
X068289Y023643*
X068332Y023651*
X068375Y023662*
X068417Y023675*
X068458Y023692*
X068497Y023711*
X068535Y023733*
X068572Y023758*
X068607Y023785*
X068639Y023815*
X068670Y023847*
X068698Y023881*
X068724Y023916*
X068747Y023954*
X068768Y023993*
X068786Y024033*
X068801Y024075*
X068813Y024117*
X068822Y024160*
X068828Y024204*
X068831Y024248*
X068832Y024269*
Y022300D02*
D01*
X068830Y022344*
X068825Y022387*
X068818Y022431*
X068807Y022474*
X068793Y022516*
X068777Y022557*
X068758Y022596*
X068735Y022634*
X068711Y022671*
X068684Y022706*
X068654Y022739*
X068622Y022769*
X068589Y022798*
X068553Y022823*
X068516Y022847*
X068477Y022868*
X068436Y022885*
X068395Y022901*
X068352Y022913*
X068309Y022922*
X068266Y022928*
X068222Y022931*
X068177*
X068133Y022928*
X068090Y022922*
X068047Y022913*
X068004Y022901*
X067963Y022885*
X067922Y022868*
X067884Y022847*
X067846Y022823*
X067810Y022798*
X067777Y022769*
X067745Y022739*
X067715Y022706*
X067688Y022671*
X067664Y022634*
X067641Y022596*
X067622Y022557*
X067606Y022516*
X067592Y022474*
X067581Y022431*
X067574Y022387*
X067569Y022344*
X067568Y022300*
X067569Y022255*
X067574Y022212*
X067581Y022168*
X067592Y022125*
X067606Y022083*
X067622Y022042*
X067641Y022003*
X067664Y021965*
X067688Y021928*
X067715Y021893*
X067745Y021860*
X067777Y021830*
X067810Y021801*
X067846Y021776*
X067884Y021752*
X067922Y021731*
X067963Y021714*
X068004Y021698*
X068047Y021686*
X068090Y021677*
X068133Y021671*
X068177Y021668*
X068222*
X068266Y021671*
X068309Y021677*
X068352Y021686*
X068395Y021698*
X068436Y021714*
X068477Y021731*
X068516Y021752*
X068553Y021776*
X068589Y021801*
X068622Y021830*
X068654Y021860*
X068684Y021893*
X068711Y021928*
X068735Y021965*
X068758Y022003*
X068777Y022042*
X068793Y022083*
X068807Y022125*
X068818Y022168*
X068825Y022212*
X068830Y022255*
X068832Y022300*
X066168Y024659D02*
D01*
X066140Y024658*
X066113Y024655*
X066086Y024650*
X066060Y024643*
X066034Y024635*
X066009Y024625*
X065984Y024613*
X065961Y024599*
X065938Y024584*
X065917Y024567*
X065897Y024549*
X065893Y024544*
X066168Y024659D02*
D01*
X066140Y024658*
X066113Y024655*
X066086Y024650*
X066060Y024643*
X066034Y024635*
X066009Y024625*
X065984Y024613*
X065961Y024599*
X065938Y024584*
X065917Y024567*
X065897Y024549*
X065893Y024544*
X068782Y019869D02*
D01*
X068780Y019913*
X068775Y019956*
X068768Y020000*
X068757Y020043*
X068743Y020085*
X068727Y020126*
X068708Y020165*
X068685Y020203*
X068661Y020240*
X068634Y020275*
X068604Y020308*
X068572Y020338*
X068539Y020367*
X068503Y020392*
X068466Y020416*
X068427Y020437*
X068386Y020454*
X068345Y020470*
X068302Y020482*
X068259Y020491*
X068216Y020497*
X068172Y020500*
X068127*
X068083Y020497*
X068040Y020491*
X067997Y020482*
X067954Y020470*
X067913Y020454*
X067872Y020437*
X067834Y020416*
X067796Y020392*
X067760Y020367*
X067727Y020338*
X067695Y020308*
X067665Y020275*
X067638Y020240*
X067614Y020203*
X067591Y020165*
X067572Y020126*
X067556Y020085*
X067542Y020043*
X067531Y020000*
X067524Y019956*
X067519Y019913*
X067518Y019869*
X067519Y019824*
X067524Y019781*
X067531Y019737*
X067542Y019694*
X067556Y019652*
X067572Y019611*
X067591Y019572*
X067614Y019534*
X067638Y019497*
X067665Y019462*
X067695Y019429*
X067727Y019399*
X067760Y019370*
X067796Y019345*
X067834Y019321*
X067872Y019300*
X067913Y019283*
X067954Y019267*
X067997Y019255*
X068040Y019246*
X068083Y019240*
X068127Y019237*
X068172*
X068216Y019240*
X068259Y019246*
X068302Y019255*
X068345Y019267*
X068386Y019283*
X068427Y019300*
X068466Y019321*
X068503Y019345*
X068539Y019370*
X068572Y019399*
X068604Y019429*
X068634Y019462*
X068661Y019497*
X068685Y019534*
X068708Y019572*
X068727Y019611*
X068743Y019652*
X068757Y019694*
X068768Y019737*
X068775Y019781*
X068780Y019824*
X068782Y019869*
Y017900D02*
D01*
X068780Y017944*
X068775Y017987*
X068768Y018031*
X068757Y018074*
X068743Y018116*
X068727Y018157*
X068708Y018196*
X068685Y018234*
X068661Y018271*
X068634Y018306*
X068604Y018339*
X068572Y018369*
X068539Y018398*
X068503Y018423*
X068466Y018447*
X068427Y018468*
X068386Y018485*
X068345Y018501*
X068302Y018513*
X068259Y018522*
X068216Y018528*
X068172Y018531*
X068127*
X068083Y018528*
X068040Y018522*
X067997Y018513*
X067954Y018501*
X067913Y018485*
X067872Y018468*
X067834Y018447*
X067796Y018423*
X067760Y018398*
X067727Y018369*
X067695Y018339*
X067665Y018306*
X067638Y018271*
X067614Y018234*
X067591Y018196*
X067572Y018157*
X067556Y018116*
X067542Y018074*
X067531Y018031*
X067524Y017987*
X067519Y017944*
X067518Y017900*
X067519Y017855*
X067524Y017812*
X067531Y017768*
X067542Y017725*
X067556Y017683*
X067572Y017642*
X067591Y017603*
X067614Y017565*
X067638Y017528*
X067665Y017493*
X067695Y017460*
X067727Y017430*
X067760Y017401*
X067796Y017376*
X067834Y017352*
X067872Y017331*
X067913Y017314*
X067954Y017298*
X067997Y017286*
X068040Y017277*
X068083Y017271*
X068127Y017268*
X068172*
X068216Y017271*
X068259Y017277*
X068302Y017286*
X068345Y017298*
X068386Y017314*
X068427Y017331*
X068466Y017352*
X068503Y017376*
X068539Y017401*
X068572Y017430*
X068604Y017460*
X068634Y017493*
X068661Y017528*
X068685Y017565*
X068708Y017603*
X068727Y017642*
X068743Y017683*
X068757Y017725*
X068768Y017768*
X068775Y017812*
X068780Y017855*
X068782Y017900*
X063374Y022026D02*
D01*
X063355Y022006*
X063338Y021984*
X063322Y021962*
X063308Y021939*
X063296Y021914*
X063285Y021889*
X063276Y021864*
X063269Y021837*
X063264Y021811*
X063261Y021784*
X063259Y021756*
X063260Y021750*
X064044Y020996D02*
D01*
X064043Y021023*
X064040Y021049*
X064044Y020996D02*
D01*
X064043Y021023*
X064040Y021049*
X063374Y022026D02*
D01*
X063355Y022006*
X063338Y021984*
X063322Y021962*
X063308Y021939*
X063296Y021914*
X063285Y021889*
X063276Y021864*
X063269Y021837*
X063264Y021811*
X063261Y021784*
X063259Y021756*
X063260Y021750*
X060250Y021340D02*
D01*
X060222Y021339*
X060195Y021336*
X060168Y021331*
X060142Y021324*
X060116Y021316*
X060091Y021306*
X060066Y021294*
X060043Y021280*
X060020Y021265*
X059999Y021248*
X059979Y021230*
X059960Y021210*
X059942Y021190*
X059926Y021168*
X059912Y021145*
X059899Y021120*
X059888Y021096*
X059879Y021070*
X059871Y021044*
X059865Y021017*
X059862Y020990*
X059860Y020963*
Y020936*
X059862Y020909*
X059865Y020882*
X059871Y020855*
X059879Y020829*
X059888Y020803*
X059899Y020779*
X059912Y020755*
X059926Y020731*
X059942Y020709*
X059960Y020689*
X059979Y020669*
X059999Y020651*
X060020Y020634*
X060043Y020619*
X060066Y020605*
X060091Y020593*
X060116Y020583*
X060142Y020575*
X060168Y020568*
X060195Y020563*
X060222Y020560*
X060250Y020560*
Y021340D02*
D01*
X060222Y021339*
X060195Y021336*
X060168Y021331*
X060142Y021324*
X060116Y021316*
X060091Y021306*
X060066Y021294*
X060043Y021280*
X060020Y021265*
X059999Y021248*
X059979Y021230*
X059960Y021210*
X059942Y021190*
X059926Y021168*
X059912Y021145*
X059899Y021120*
X059888Y021096*
X059879Y021070*
X059871Y021044*
X059865Y021017*
X059862Y020990*
X059860Y020963*
Y020936*
X059862Y020909*
X059865Y020882*
X059871Y020855*
X059879Y020829*
X059888Y020803*
X059899Y020779*
X059912Y020755*
X059926Y020731*
X059942Y020709*
X059960Y020689*
X059979Y020669*
X059999Y020651*
X060020Y020634*
X060043Y020619*
X060066Y020605*
X060091Y020593*
X060116Y020583*
X060142Y020575*
X060168Y020568*
X060195Y020563*
X060222Y020560*
X060250Y020560*
X063264Y018450D02*
D01*
X063264Y018422*
X063267Y018395*
X063272Y018368*
X063279Y018342*
X063287Y018316*
X063297Y018291*
X063309Y018266*
X063323Y018243*
X063338Y018220*
X063355Y018199*
X063373Y018179*
X063393Y018160*
X063413Y018142*
X063435Y018126*
X063459Y018112*
X063483Y018099*
X063507Y018088*
X063533Y018079*
X063559Y018071*
X063586Y018065*
X063613Y018062*
X063640Y018060*
X063667*
X063694Y018062*
X063721Y018065*
X063748Y018071*
X063774Y018079*
X063800Y018088*
X063824Y018099*
X063849Y018112*
X063872Y018126*
X063894Y018142*
X063914Y018160*
X063934Y018179*
X063952Y018199*
X063969Y018220*
X063984Y018243*
X063998Y018266*
X064010Y018291*
X064020Y018316*
X064028Y018342*
X064035Y018368*
X064040Y018395*
X064043Y018422*
X064044Y018450*
X068818Y024400D02*
X069704D01*
X068738Y024600D02*
X069704D01*
X068828Y024200D02*
X069704D01*
X068600Y024758D02*
Y025450D01*
X068800Y024467D02*
Y025450D01*
X068772Y024000D02*
X069704D01*
X068624Y023800D02*
X069704D01*
X068800Y022499D02*
Y024070D01*
X068600Y022789D02*
Y023779D01*
X068400Y024868D02*
Y025450D01*
X068542Y024800D02*
X069704D01*
X068000Y024868D02*
Y025450D01*
X068200Y024901D02*
Y025450D01*
X068400Y022900D02*
Y023669D01*
X068200Y022932D02*
Y023636D01*
X068756Y022600D02*
X069704D01*
X068587Y022800D02*
X069704D01*
X068824Y022400D02*
X069704D01*
X068824Y022200D02*
X069704D01*
X068756Y022000D02*
X069704D01*
X068587Y021800D02*
X069704D01*
X068200Y020499D02*
Y021668D01*
X065652Y023200D02*
X069704D01*
X065452Y023000D02*
X069704D01*
X066052Y023600D02*
X069704D01*
X065852Y023400D02*
X069704D01*
X064052Y021600D02*
X069704D01*
X067600Y024659D02*
Y025450D01*
X067400Y024659D02*
Y025450D01*
X067800Y024758D02*
Y025450D01*
X067000Y024659D02*
Y025450D01*
X067200Y024659D02*
Y025450D01*
X066600Y024659D02*
Y025450D01*
X066800Y024659D02*
Y025450D01*
X066200Y024659D02*
Y025450D01*
X066400Y024659D02*
Y025450D01*
X065800Y024452D02*
Y025450D01*
X066000Y024620D02*
Y025450D01*
X065000Y023652D02*
Y025450D01*
X065200Y023852D02*
Y025450D01*
X064600Y023252D02*
Y025450D01*
X064800Y023452D02*
Y025450D01*
X064200Y022852D02*
Y025450D01*
X064400Y023052D02*
Y025450D01*
X066168Y024659D02*
X067703D01*
X066330Y023879D02*
X067703D01*
X067800Y022789D02*
Y023779D01*
X068000Y022900D02*
Y023669D01*
X067600Y022499D02*
Y023879D01*
X066252Y023800D02*
X067776D01*
X065252Y022800D02*
X067813D01*
X065052Y022600D02*
X067644D01*
X065400Y024052D02*
Y025450D01*
X065600Y024252D02*
Y025450D01*
X064452Y022000D02*
X067644D01*
X064252Y021800D02*
X067813D01*
X064852Y022400D02*
X067576D01*
X064652Y022200D02*
X067576D01*
X068778Y019800D02*
X069704D01*
X068768Y020000D02*
X069704D01*
X068722Y019600D02*
X069704D01*
X069400Y016800D02*
Y025450D01*
X069600Y016800D02*
Y025450D01*
X069200Y016800D02*
Y025450D01*
X069704Y016800D02*
Y025450D01*
X069000Y016800D02*
Y025450D01*
X068800Y016800D02*
Y022101D01*
X068492Y020400D02*
X069704D01*
X068688Y020200D02*
X069704D01*
X068600Y020312D02*
Y021811D01*
X068400Y020449D02*
Y021700D01*
X068600Y018344D02*
Y019425D01*
X068574Y019400D02*
X069704D01*
X068537Y018400D02*
X069704D01*
X068774Y018000D02*
X069704D01*
X068400Y018481D02*
Y019288D01*
X068706Y018200D02*
X069704D01*
X068774Y017800D02*
X069704D01*
X068706Y017600D02*
X069704D01*
X068600Y016800D02*
Y017456D01*
X068537Y017400D02*
X069704D01*
X064044Y018800D02*
X069704D01*
X064044Y018600D02*
X069704D01*
X064044Y019200D02*
X069704D01*
X064044Y019000D02*
X069704D01*
X068400Y016800D02*
Y017319D01*
X068200Y018530D02*
Y019238D01*
Y016800D02*
Y017270D01*
X067400Y016800D02*
Y023879D01*
X067200Y016800D02*
Y023879D01*
X067600Y020180D02*
Y022101D01*
X066800Y016800D02*
Y023879D01*
X067000Y016800D02*
Y023879D01*
X066400Y016800D02*
Y023879D01*
X066600Y016800D02*
Y023879D01*
X066200Y016800D02*
Y023748D01*
X066000Y016800D02*
Y023548D01*
X065000Y016800D02*
Y022548D01*
X064800Y016800D02*
Y022348D01*
X064600Y016800D02*
Y022148D01*
X064400Y016800D02*
Y021948D01*
X065800Y016800D02*
Y023348D01*
X065600Y016800D02*
Y023148D01*
X065400Y016800D02*
Y022948D01*
X065200Y016800D02*
Y022748D01*
X067800Y020395D02*
Y021811D01*
X068000Y020483D02*
Y021700D01*
Y018514D02*
Y019254D01*
Y016800D02*
Y017286D01*
X067800Y018426D02*
Y019342D01*
Y016800D02*
Y017374D01*
X064044Y019600D02*
X067578D01*
X064044Y019400D02*
X067726D01*
X064044Y020000D02*
X067532D01*
X064044Y019800D02*
X067522D01*
X067600Y018212D02*
Y019557D01*
Y016800D02*
Y017588D01*
X064200Y016800D02*
Y021748D01*
X064044Y018450D02*
Y020996D01*
X058650Y025450D02*
X069704D01*
X058600Y025400D02*
X069704D01*
X058400Y025200D02*
X069704D01*
X063800Y022452D02*
Y025450D01*
X064000Y022652D02*
Y025450D01*
X063374Y022026D02*
X065893Y024544D01*
X064040Y021588D02*
X066330Y023879D01*
X063400Y022052D02*
Y025450D01*
X063600Y022252D02*
Y025450D01*
X058200Y025000D02*
X069704D01*
X058100Y024800D02*
X067858D01*
X058100Y024600D02*
X065963D01*
X058100Y024400D02*
X065748D01*
X058100Y024200D02*
X065548D01*
X058100Y024000D02*
X065348D01*
X058100Y023800D02*
X065148D01*
X058100Y023600D02*
X064948D01*
X064040Y021200D02*
X069704D01*
X064040Y021400D02*
X069704D01*
X064044Y021000D02*
X069704D01*
X064040Y021049D02*
Y021588D01*
X064044Y020800D02*
X069704D01*
X064044Y020600D02*
X069704D01*
X058100Y023400D02*
X064748D01*
X058100Y023200D02*
X064548D01*
X058100Y023000D02*
X064348D01*
X058100Y022800D02*
X064148D01*
X058100Y022600D02*
X063948D01*
X058100Y022400D02*
X063748D01*
X058100Y022200D02*
X063548D01*
X062200Y021340D02*
Y025450D01*
X062000Y021340D02*
Y025450D01*
X062400Y021340D02*
Y025450D01*
X061600Y021340D02*
Y025450D01*
X061800Y021340D02*
Y025450D01*
X063000Y021340D02*
Y025450D01*
X063200Y021340D02*
Y025450D01*
X062600Y021340D02*
Y025450D01*
X062800Y021340D02*
Y025450D01*
X061200Y021340D02*
Y025450D01*
X061400Y021340D02*
Y025450D01*
X058100Y024900D02*
X058650Y025450D01*
X061000Y021340D02*
Y025450D01*
X060400Y021340D02*
Y025450D01*
X060800Y021340D02*
Y025450D01*
X060000Y021249D02*
Y025450D01*
X060200Y021337D02*
Y025450D01*
X063260Y021340D02*
Y021750D01*
X060250Y021340D02*
X063260D01*
X060600D02*
Y025450D01*
X058200Y020750D02*
Y025000D01*
X060250Y020560D02*
X063264D01*
X058350Y020600D02*
X060078D01*
X058100Y022000D02*
X063351D01*
X058100Y021800D02*
X063263D01*
X058100Y021600D02*
X063260D01*
X058100Y021400D02*
X063260D01*
X058100Y021200D02*
X059951D01*
X058150Y020800D02*
X059890D01*
X058100Y020850D02*
Y024900D01*
Y021000D02*
X059863D01*
X064044Y020200D02*
X067612D01*
X064044Y020400D02*
X067808D01*
X060450Y019800D02*
X063264D01*
Y018450D02*
Y020560D01*
X060450Y019600D02*
X063264D01*
X064040Y018400D02*
X067763D01*
X063200Y016650D02*
Y020560D01*
X060450Y018400D02*
X063267D01*
X058950Y020000D02*
X063264D01*
X060450Y019400D02*
X063264D01*
X058550Y020400D02*
X063264D01*
X058750Y020200D02*
X063264D01*
X060450Y018800D02*
X063264D01*
X060450Y018600D02*
X063264D01*
X060450Y019200D02*
X063264D01*
X060450Y019000D02*
X063264D01*
X064000Y016800D02*
Y018271D01*
X063953Y018200D02*
X067594D01*
X060450Y018000D02*
X067526D01*
X063800Y016800D02*
Y018089D01*
X063600Y016800D02*
Y018064D01*
X063350Y016800D02*
X069704D01*
X063350D02*
X069704D01*
X063400D02*
Y018154D01*
X062800Y016250D02*
X063350Y016800D01*
X060450Y017600D02*
X067594D01*
X060450Y017400D02*
X067763D01*
X060450Y018200D02*
X063354D01*
X060450Y017800D02*
X067526D01*
X060450Y017200D02*
X069704D01*
X060450Y017000D02*
X069704D01*
X060450Y016800D02*
X063350D01*
X060450Y016600D02*
X063150D01*
X062800Y016250D02*
Y020560D01*
X060200Y019800D02*
Y020563D01*
X063000Y016450D02*
Y020560D01*
X059800Y019800D02*
Y025450D01*
X060000Y019800D02*
Y020651D01*
X062000Y015800D02*
Y020560D01*
X062200Y015800D02*
Y020560D01*
X061600Y015800D02*
Y020560D01*
X061800Y015800D02*
Y020560D01*
X058800Y020150D02*
Y025450D01*
X059000Y019950D02*
Y025450D01*
X058600Y020350D02*
Y025400D01*
X058400Y020550D02*
Y025200D01*
X059400Y019800D02*
Y025450D01*
X059600Y019800D02*
Y025450D01*
X059200Y019800D02*
Y025450D01*
X058100Y020850D02*
X059150Y019800D01*
X062600Y015890D02*
Y020560D01*
X062550Y015800D02*
X062800Y016250D01*
X061400Y015800D02*
Y020560D01*
X062400Y015800D02*
Y020560D01*
X061200Y015800D02*
Y020560D01*
X060750Y015800D02*
X062550D01*
X060800D02*
Y020560D01*
X061000Y015800D02*
Y020560D01*
X060450Y016400D02*
X062950D01*
X060450Y016200D02*
X062772D01*
X060400Y019800D02*
Y020560D01*
X059150Y019800D02*
X060450D01*
Y016100D02*
X060750Y015800D01*
X060550Y016000D02*
X062661D01*
X060600Y015950D02*
Y020560D01*
X060450Y016100D02*
Y019800D01*
M02*