%FSDAX24Y24*%
%MOIN*%
%SFA1B1*%

%IPPOS*%
%ADD25C,0.010000*%
%ADD49C,0.003900*%
%ADD50C,0.006000*%
%LNde-130624-1*%
%LPD*%
G54D25*
X068987Y022300D02*
D01*
X068985Y022354*
X068979Y022409*
X068969Y022463*
X068956Y022516*
X068939Y022569*
X068918Y022620*
X068894Y022669*
X068867Y022717*
X068836Y022762*
X068802Y022805*
X068766Y022846*
X068726Y022884*
X068684Y022920*
X068640Y022952*
X068593Y022981*
X068544Y023007*
X068494Y023029*
X068443Y023048*
X068390Y023063*
X068336Y023075*
X068282Y023082*
X068227Y023086*
X068172*
X068117Y023082*
X068063Y023075*
X068009Y023063*
X067956Y023048*
X067905Y023029*
X067855Y023007*
X067806Y022981*
X067759Y022952*
X067715Y022920*
X067673Y022884*
X067633Y022846*
X067597Y022805*
X067563Y022762*
X067532Y022717*
X067505Y022669*
X067481Y022620*
X067460Y022569*
X067443Y022516*
X067430Y022463*
X067420Y022409*
X067414Y022354*
X067413Y022300*
X067414Y022245*
X067420Y022190*
X067430Y022136*
X067443Y022083*
X067460Y022030*
X067481Y021979*
X067505Y021930*
X067532Y021882*
X067563Y021837*
X067597Y021794*
X067633Y021753*
X067673Y021715*
X067715Y021679*
X067759Y021647*
X067806Y021618*
X067855Y021592*
X067905Y021570*
X067956Y021551*
X068009Y021536*
X068063Y021524*
X068117Y021517*
X068172Y021513*
X068227*
X068282Y021517*
X068336Y021524*
X068390Y021536*
X068443Y021551*
X068494Y021570*
X068544Y021592*
X068593Y021618*
X068640Y021647*
X068684Y021679*
X068726Y021715*
X068766Y021753*
X068802Y021794*
X068836Y021837*
X068867Y021882*
X068894Y021930*
X068918Y021979*
X068939Y022030*
X068956Y022083*
X068969Y022136*
X068979Y022190*
X068985Y022245*
X068987Y022300*
Y024284D02*
D01*
X068985Y024338*
X068979Y024393*
X068969Y024447*
X068956Y024500*
X068939Y024553*
X068918Y024604*
X068894Y024653*
X068867Y024701*
X068836Y024746*
X068802Y024789*
X068766Y024830*
X068726Y024868*
X068684Y024904*
X068640Y024936*
X068593Y024965*
X068544Y024991*
X068494Y025013*
X068443Y025032*
X068390Y025047*
X068336Y025059*
X068282Y025066*
X068227Y025070*
X068172*
X068117Y025066*
X068063Y025059*
X068009Y025047*
X067956Y025032*
X067905Y025013*
X067855Y024991*
X067806Y024965*
X067759Y024936*
X067715Y024904*
X067673Y024868*
X067633Y024830*
X067597Y024789*
X067563Y024746*
X067532Y024701*
X067505Y024653*
X067481Y024604*
X067460Y024553*
X067443Y024500*
X067430Y024447*
X067420Y024393*
X067414Y024338*
X067413Y024284*
X067414Y024229*
X067420Y024174*
X067430Y024120*
X067443Y024067*
X067460Y024014*
X067481Y023963*
X067505Y023914*
X067532Y023866*
X067563Y023821*
X067597Y023778*
X067633Y023737*
X067673Y023699*
X067715Y023663*
X067759Y023631*
X067806Y023602*
X067855Y023576*
X067905Y023554*
X067956Y023535*
X068009Y023520*
X068063Y023508*
X068117Y023501*
X068172Y023497*
X068227*
X068282Y023501*
X068336Y023508*
X068390Y023520*
X068443Y023535*
X068494Y023554*
X068544Y023576*
X068593Y023602*
X068640Y023631*
X068684Y023663*
X068726Y023699*
X068766Y023737*
X068802Y023778*
X068836Y023821*
X068867Y023866*
X068894Y023914*
X068918Y023963*
X068939Y024014*
X068956Y024067*
X068969Y024120*
X068979Y024174*
X068985Y024229*
X068987Y024284*
X068937Y019869D02*
D01*
X068935Y019923*
X068929Y019978*
X068919Y020032*
X068906Y020085*
X068889Y020138*
X068868Y020189*
X068844Y020238*
X068817Y020286*
X068786Y020331*
X068752Y020374*
X068716Y020415*
X068676Y020453*
X068634Y020489*
X068590Y020521*
X068543Y020550*
X068494Y020576*
X068444Y020598*
X068393Y020617*
X068340Y020632*
X068286Y020644*
X068232Y020651*
X068177Y020655*
X068122*
X068067Y020651*
X068013Y020644*
X067959Y020632*
X067906Y020617*
X067855Y020598*
X067805Y020576*
X067756Y020550*
X067709Y020521*
X067665Y020489*
X067623Y020453*
X067583Y020415*
X067547Y020374*
X067513Y020331*
X067482Y020286*
X067455Y020238*
X067431Y020189*
X067410Y020138*
X067393Y020085*
X067380Y020032*
X067370Y019978*
X067364Y019923*
X067363Y019869*
X067364Y019814*
X067370Y019759*
X067380Y019705*
X067393Y019652*
X067410Y019599*
X067431Y019548*
X067455Y019499*
X067482Y019451*
X067513Y019406*
X067547Y019363*
X067583Y019322*
X067623Y019284*
X067665Y019248*
X067709Y019216*
X067756Y019187*
X067805Y019161*
X067855Y019139*
X067906Y019120*
X067959Y019105*
X068013Y019093*
X068067Y019086*
X068122Y019082*
X068177*
X068232Y019086*
X068286Y019093*
X068340Y019105*
X068393Y019120*
X068444Y019139*
X068494Y019161*
X068543Y019187*
X068590Y019216*
X068634Y019248*
X068676Y019284*
X068716Y019322*
X068752Y019363*
X068786Y019406*
X068817Y019451*
X068844Y019499*
X068868Y019548*
X068889Y019599*
X068906Y019652*
X068919Y019705*
X068929Y019759*
X068935Y019814*
X068937Y019869*
Y017884D02*
D01*
X068935Y017938*
X068929Y017993*
X068919Y018047*
X068906Y018100*
X068889Y018153*
X068868Y018204*
X068844Y018253*
X068817Y018301*
X068786Y018346*
X068752Y018389*
X068716Y018430*
X068676Y018468*
X068634Y018504*
X068590Y018536*
X068543Y018565*
X068494Y018591*
X068444Y018613*
X068393Y018632*
X068340Y018647*
X068286Y018659*
X068232Y018666*
X068177Y018670*
X068122*
X068067Y018666*
X068013Y018659*
X067959Y018647*
X067906Y018632*
X067855Y018613*
X067805Y018591*
X067756Y018565*
X067709Y018536*
X067665Y018504*
X067623Y018468*
X067583Y018430*
X067547Y018389*
X067513Y018346*
X067482Y018301*
X067455Y018253*
X067431Y018204*
X067410Y018153*
X067393Y018100*
X067380Y018047*
X067370Y017993*
X067364Y017938*
X067363Y017884*
X067364Y017829*
X067370Y017774*
X067380Y017720*
X067393Y017667*
X067410Y017614*
X067431Y017563*
X067455Y017514*
X067482Y017466*
X067513Y017421*
X067547Y017378*
X067583Y017337*
X067623Y017299*
X067665Y017263*
X067709Y017231*
X067756Y017202*
X067805Y017176*
X067855Y017154*
X067906Y017135*
X067959Y017120*
X068013Y017108*
X068067Y017101*
X068122Y017097*
X068177*
X068232Y017101*
X068286Y017108*
X068340Y017120*
X068393Y017135*
X068444Y017154*
X068494Y017176*
X068543Y017202*
X068590Y017231*
X068634Y017263*
X068676Y017299*
X068716Y017337*
X068752Y017378*
X068786Y017421*
X068817Y017466*
X068844Y017514*
X068868Y017563*
X068889Y017614*
X068906Y017667*
X068919Y017720*
X068929Y017774*
X068935Y017829*
X068937Y017884*
X068941Y013300D02*
D01*
X068939Y013354*
X068933Y013409*
X068923Y013463*
X068910Y013516*
X068893Y013569*
X068872Y013620*
X068848Y013669*
X068821Y013717*
X068790Y013762*
X068756Y013805*
X068720Y013846*
X068680Y013884*
X068638Y013920*
X068594Y013952*
X068547Y013981*
X068498Y014007*
X068448Y014029*
X068397Y014048*
X068344Y014063*
X068290Y014075*
X068236Y014082*
X068181Y014086*
X068126*
X068071Y014082*
X068017Y014075*
X067963Y014063*
X067910Y014048*
X067859Y014029*
X067809Y014007*
X067760Y013981*
X067713Y013952*
X067669Y013920*
X067627Y013884*
X067587Y013846*
X067551Y013805*
X067517Y013762*
X067486Y013717*
X067459Y013669*
X067435Y013620*
X067414Y013569*
X067397Y013516*
X067384Y013463*
X067374Y013409*
X067368Y013354*
X067367Y013300*
X067368Y013245*
X067374Y013190*
X067384Y013136*
X067397Y013083*
X067414Y013030*
X067435Y012979*
X067459Y012930*
X067486Y012882*
X067517Y012837*
X067551Y012794*
X067587Y012753*
X067627Y012715*
X067669Y012679*
X067713Y012647*
X067760Y012618*
X067809Y012592*
X067859Y012570*
X067910Y012551*
X067963Y012536*
X068017Y012524*
X068071Y012517*
X068126Y012513*
X068181*
X068236Y012517*
X068290Y012524*
X068344Y012536*
X068397Y012551*
X068448Y012570*
X068498Y012592*
X068547Y012618*
X068594Y012647*
X068638Y012679*
X068680Y012715*
X068720Y012753*
X068756Y012794*
X068790Y012837*
X068821Y012882*
X068848Y012930*
X068872Y012979*
X068893Y013030*
X068910Y013083*
X068923Y013136*
X068933Y013190*
X068939Y013245*
X068941Y013300*
Y015316D02*
D01*
X068939Y015370*
X068933Y015425*
X068923Y015479*
X068910Y015532*
X068893Y015585*
X068872Y015636*
X068848Y015685*
X068821Y015733*
X068790Y015778*
X068756Y015821*
X068720Y015862*
X068680Y015900*
X068638Y015936*
X068594Y015968*
X068547Y015997*
X068498Y016023*
X068448Y016045*
X068397Y016064*
X068344Y016079*
X068290Y016091*
X068236Y016098*
X068181Y016102*
X068126*
X068071Y016098*
X068017Y016091*
X067963Y016079*
X067910Y016064*
X067859Y016045*
X067809Y016023*
X067760Y015997*
X067713Y015968*
X067669Y015936*
X067627Y015900*
X067587Y015862*
X067551Y015821*
X067517Y015778*
X067486Y015733*
X067459Y015685*
X067435Y015636*
X067414Y015585*
X067397Y015532*
X067384Y015479*
X067374Y015425*
X067368Y015370*
X067367Y015316*
X067368Y015261*
X067374Y015206*
X067384Y015152*
X067397Y015099*
X067414Y015046*
X067435Y014995*
X067459Y014946*
X067486Y014898*
X067517Y014853*
X067551Y014810*
X067587Y014769*
X067627Y014731*
X067669Y014695*
X067713Y014663*
X067760Y014634*
X067809Y014608*
X067859Y014586*
X067910Y014567*
X067963Y014552*
X068017Y014540*
X068071Y014533*
X068126Y014529*
X068181*
X068236Y014533*
X068290Y014540*
X068344Y014552*
X068397Y014567*
X068448Y014586*
X068498Y014608*
X068547Y014634*
X068594Y014663*
X068638Y014695*
X068680Y014731*
X068720Y014769*
X068756Y014810*
X068790Y014853*
X068821Y014898*
X068848Y014946*
X068872Y014995*
X068893Y015046*
X068910Y015099*
X068923Y015152*
X068933Y015206*
X068939Y015261*
X068941Y015316*
Y011316D02*
D01*
X068939Y011370*
X068933Y011425*
X068923Y011479*
X068910Y011532*
X068893Y011585*
X068872Y011636*
X068848Y011685*
X068821Y011733*
X068790Y011778*
X068756Y011821*
X068720Y011862*
X068680Y011900*
X068638Y011936*
X068594Y011968*
X068547Y011997*
X068498Y012023*
X068448Y012045*
X068397Y012064*
X068344Y012079*
X068290Y012091*
X068236Y012098*
X068181Y012102*
X068126*
X068071Y012098*
X068017Y012091*
X067963Y012079*
X067910Y012064*
X067859Y012045*
X067809Y012023*
X067760Y011997*
X067713Y011968*
X067669Y011936*
X067627Y011900*
X067587Y011862*
X067551Y011821*
X067517Y011778*
X067486Y011733*
X067459Y011685*
X067435Y011636*
X067414Y011585*
X067397Y011532*
X067384Y011479*
X067374Y011425*
X067368Y011370*
X067367Y011316*
X067368Y011261*
X067374Y011206*
X067384Y011152*
X067397Y011099*
X067414Y011046*
X067435Y010995*
X067459Y010946*
X067486Y010898*
X067517Y010853*
X067551Y010810*
X067587Y010769*
X067627Y010731*
X067669Y010695*
X067713Y010663*
X067760Y010634*
X067809Y010608*
X067859Y010586*
X067910Y010567*
X067963Y010552*
X068017Y010540*
X068071Y010533*
X068126Y010529*
X068181*
X068236Y010533*
X068290Y010540*
X068344Y010552*
X068397Y010567*
X068448Y010586*
X068498Y010608*
X068547Y010634*
X068594Y010663*
X068638Y010695*
X068680Y010731*
X068720Y010769*
X068756Y010810*
X068790Y010853*
X068821Y010898*
X068848Y010946*
X068872Y010995*
X068893Y011046*
X068910Y011099*
X068923Y011152*
X068933Y011206*
X068939Y011261*
X068941Y011316*
X056937Y018866D02*
D01*
X056935Y018920*
X056929Y018975*
X056919Y019029*
X056906Y019082*
X056889Y019135*
X056868Y019186*
X056844Y019235*
X056817Y019283*
X056786Y019328*
X056752Y019371*
X056716Y019412*
X056676Y019450*
X056634Y019486*
X056590Y019518*
X056543Y019547*
X056494Y019573*
X056444Y019595*
X056393Y019614*
X056340Y019629*
X056286Y019641*
X056232Y019648*
X056177Y019652*
X056122*
X056067Y019648*
X056013Y019641*
X055959Y019629*
X055906Y019614*
X055855Y019595*
X055805Y019573*
X055756Y019547*
X055709Y019518*
X055665Y019486*
X055623Y019450*
X055583Y019412*
X055547Y019371*
X055513Y019328*
X055482Y019283*
X055455Y019235*
X055431Y019186*
X055410Y019135*
X055393Y019082*
X055380Y019029*
X055370Y018975*
X055364Y018920*
X055363Y018866*
X055364Y018811*
X055370Y018756*
X055380Y018702*
X055393Y018649*
X055410Y018596*
X055431Y018545*
X055455Y018496*
X055482Y018448*
X055513Y018403*
X055547Y018360*
X055583Y018319*
X055623Y018281*
X055665Y018245*
X055709Y018213*
X055756Y018184*
X055805Y018158*
X055855Y018136*
X055906Y018117*
X055959Y018102*
X056013Y018090*
X056067Y018083*
X056122Y018079*
X056177*
X056232Y018083*
X056286Y018090*
X056340Y018102*
X056393Y018117*
X056444Y018136*
X056494Y018158*
X056543Y018184*
X056590Y018213*
X056634Y018245*
X056676Y018281*
X056716Y018319*
X056752Y018360*
X056786Y018403*
X056817Y018448*
X056844Y018496*
X056868Y018545*
X056889Y018596*
X056906Y018649*
X056919Y018702*
X056929Y018756*
X056935Y018811*
X056937Y018866*
Y020850D02*
D01*
X056935Y020904*
X056929Y020959*
X056919Y021013*
X056906Y021066*
X056889Y021119*
X056868Y021170*
X056844Y021219*
X056817Y021267*
X056786Y021312*
X056752Y021355*
X056716Y021396*
X056676Y021434*
X056634Y021470*
X056590Y021502*
X056543Y021531*
X056494Y021557*
X056444Y021579*
X056393Y021598*
X056340Y021613*
X056286Y021625*
X056232Y021632*
X056177Y021636*
X056122*
X056067Y021632*
X056013Y021625*
X055959Y021613*
X055906Y021598*
X055855Y021579*
X055805Y021557*
X055756Y021531*
X055709Y021502*
X055665Y021470*
X055623Y021434*
X055583Y021396*
X055547Y021355*
X055513Y021312*
X055482Y021267*
X055455Y021219*
X055431Y021170*
X055410Y021119*
X055393Y021066*
X055380Y021013*
X055370Y020959*
X055364Y020904*
X055363Y020850*
X055364Y020795*
X055370Y020740*
X055380Y020686*
X055393Y020633*
X055410Y020580*
X055431Y020529*
X055455Y020480*
X055482Y020432*
X055513Y020387*
X055547Y020344*
X055583Y020303*
X055623Y020265*
X055665Y020229*
X055709Y020197*
X055756Y020168*
X055805Y020142*
X055855Y020120*
X055906Y020101*
X055959Y020086*
X056013Y020074*
X056067Y020067*
X056122Y020063*
X056177*
X056232Y020067*
X056286Y020074*
X056340Y020086*
X056393Y020101*
X056444Y020120*
X056494Y020142*
X056543Y020168*
X056590Y020197*
X056634Y020229*
X056676Y020265*
X056716Y020303*
X056752Y020344*
X056786Y020387*
X056817Y020432*
X056844Y020480*
X056868Y020529*
X056889Y020580*
X056906Y020633*
X056919Y020686*
X056929Y020740*
X056935Y020795*
X056937Y020850*
X067800Y023634D02*
X068850Y024684D01*
X067550Y023834D02*
X067600D01*
X068650Y024884*
X067550Y022734D02*
X068625Y021659D01*
X067750Y022884D02*
X068800Y021834D01*
X067500Y017484D02*
X068550Y018534D01*
X068750Y018334D02*
X068800D01*
X067700Y017284D02*
X068750Y018334D01*
X067725Y020509D02*
X068800Y019434D01*
X067550Y020334D02*
X068600Y019284D01*
X067554Y012850D02*
X068604Y013900D01*
X067754Y012650D02*
X068804Y013700D01*
X067704Y015900D02*
X068754Y014850D01*
X067504Y015750D02*
X068579Y014675D01*
X067704Y011900D02*
X068754Y010850D01*
X067504Y011750D02*
X068579Y010675D01*
X055750Y020200D02*
X056800Y021250D01*
X055500Y020400D02*
X055550D01*
X056600Y021450*
X055500Y019300D02*
X056575Y018225D01*
X055700Y019450D02*
X056750Y018400D01*
X070000Y025898D02*
Y027000D01*
X054254Y025898D02*
Y027000D01*
X063526Y026900D02*
X070000D01*
X054254D02*
X060407D01*
X069400Y027100D02*
X070000Y026900D01*
X069400Y026700D02*
X070000Y026900D01*
X054254D02*
X054854Y026700D01*
X054254Y026900D02*
X054854Y027100D01*
X070100Y010000D02*
X071400D01*
X070150Y025748D02*
X071400D01*
X071300Y010000D02*
Y016154D01*
Y019274D02*
Y025748D01*
Y010000D02*
X071500Y010600D01*
X071100D02*
X071300Y010000D01*
X071100Y025148D02*
X071300Y025748D01*
X071500Y025148*
X070000Y010000D02*
Y025748D01*
X054254Y010050D02*
Y025748D01*
Y010000D02*
X069950D01*
X054254Y025748D02*
X070000D01*
G54D49*
X065721Y022400D02*
X065879D01*
X065800Y022321D02*
Y022479D01*
X065721Y019700D02*
X065879D01*
X065800Y019621D02*
Y019779D01*
X057100Y017121D02*
Y017279D01*
X057021Y017200D02*
X057179D01*
G54D50*
X060867Y026440D02*
Y027040D01*
X060567Y026740*
X060967*
X061167Y026940D02*
X061267Y027040D01*
X061467*
X061567Y026940*
Y026540*
X061467Y026440*
X061267*
X061167Y026540*
Y026940*
X061867Y026340D02*
X061967Y026440D01*
Y026540*
X061867*
Y026440*
X061967*
X061867Y026340*
X061767Y026240*
X062367Y026940D02*
X062467Y027040D01*
X062667*
X062767Y026940*
Y026540*
X062667Y026440*
X062467*
X062367Y026540*
Y026940*
X062966D02*
X063066Y027040D01*
X063266*
X063366Y026940*
Y026540*
X063266Y026440*
X063066*
X062966Y026540*
Y026940*
X071760Y016614D02*
X071160D01*
X071460Y016314*
Y016714*
X071260Y016914D02*
X071160Y017014D01*
Y017214*
X071260Y017314*
X071660*
X071760Y017214*
Y017014*
X071660Y016914*
X071260*
X071860Y017614D02*
X071760Y017714D01*
X071660*
Y017614*
X071760*
Y017714*
X071860Y017614*
X071960Y017514*
X071260Y018114D02*
X071160Y018214D01*
Y018414*
X071260Y018514*
X071660*
X071760Y018414*
Y018214*
X071660Y018114*
X071260*
Y018714D02*
X071160Y018814D01*
Y019014*
X071260Y019114*
X071660*
X071760Y019014*
Y018814*
X071660Y018714*
X071260*
M02*