%FSDAX24Y24*%
%MOIN*%
%SFA1B1*%

%IPPOS*%
%ADD52C,0.002000*%
%LNde-130624-1*%
%LPD*%
G54D52*
X068003Y022300D02*
X068397D01*
X068200Y022103D02*
Y022497D01*
X068003Y024269D02*
X068397D01*
X068200Y024072D02*
Y024465D01*
X067953Y019869D02*
X068347D01*
X068150Y019672D02*
Y020065D01*
X067953Y017900D02*
X068347D01*
X068150Y017703D02*
Y018097D01*
X067957Y015300D02*
X068350D01*
X068154Y015103D02*
Y015497D01*
X067957Y013300D02*
X068350D01*
X068154Y013103D02*
Y013497D01*
X067957Y011300D02*
X068350D01*
X068154Y011103D02*
Y011497D01*
X063380Y014590D02*
X063970D01*
X063675Y014295D02*
Y014885D01*
X064758Y011637D02*
X065348D01*
X065053Y011342D02*
Y011933D01*
X062002Y011637D02*
X062593D01*
X062297Y011342D02*
Y011933D01*
X055506Y011637D02*
X056096D01*
X055801Y011342D02*
Y011933D01*
X055506Y014590D02*
X056096D01*
X055801Y014295D02*
Y014885D01*
X055953Y018866D02*
X056347D01*
X056150Y018669D02*
Y019063D01*
X055953Y020834D02*
X056347D01*
X056150Y020637D02*
Y021031D01*
X063604Y018450D02*
X063704D01*
X063654Y018400D02*
Y018500D01*
X060110Y020950D02*
X060390D01*
X060250Y020810D02*
Y021090D01*
M02*