%FSDAX24Y24*%
%MOIN*%
%SFA1B1*%

%IPPOS*%
%ADD32C,0.007900*%
%ADD49C,0.003900*%
%LNde-130624-1*%
%LPD*%
G54D32*
X061484Y019133D02*
Y020667D01*
X063416*
Y019133D02*
Y020667D01*
X061484Y019133D02*
X063416D01*
G54D49*
X058797Y018826D02*
D01*
X058796Y018839*
X058795Y018853*
X058792Y018866*
X058789Y018880*
X058785Y018893*
X058779Y018906*
X058773Y018918*
X058767Y018930*
X058759Y018941*
X058750Y018952*
X058741Y018962*
X058731Y018972*
X058721Y018981*
X058710Y018989*
X058698Y018996*
X058686Y019003*
X058673Y019008*
X058660Y019013*
X058647Y019017*
X058634Y019020*
X058620Y019021*
X058606Y019022*
X058593*
X058579Y019021*
X058565Y019020*
X058552Y019017*
X058539Y019013*
X058526Y019008*
X058513Y019003*
X058501Y018996*
X058489Y018989*
X058478Y018981*
X058468Y018972*
X058458Y018962*
X058449Y018952*
X058440Y018941*
X058432Y018930*
X058426Y018918*
X058420Y018906*
X058414Y018893*
X058410Y018880*
X058407Y018866*
X058404Y018853*
X058403Y018839*
X058403Y018826*
X058403Y018812*
X058404Y018798*
X058407Y018785*
X058410Y018771*
X058414Y018758*
X058420Y018745*
X058426Y018733*
X058432Y018721*
X058440Y018710*
X058449Y018699*
X058458Y018689*
X058468Y018679*
X058478Y018670*
X058489Y018662*
X058501Y018655*
X058513Y018648*
X058526Y018643*
X058539Y018638*
X058552Y018634*
X058565Y018631*
X058579Y018630*
X058593Y018629*
X058606*
X058620Y018630*
X058634Y018631*
X058647Y018634*
X058660Y018638*
X058673Y018643*
X058686Y018648*
X058698Y018655*
X058710Y018662*
X058721Y018670*
X058731Y018679*
X058741Y018689*
X058750Y018699*
X058759Y018710*
X058767Y018721*
X058773Y018733*
X058779Y018745*
X058785Y018758*
X058789Y018771*
X058792Y018785*
X058795Y018798*
X058796Y018812*
X058797Y018826*
X059484Y023483D02*
X060016D01*
X059484Y022617D02*
X060016D01*
Y023483*
X059484Y022617D02*
Y023483D01*
X058246Y018472D02*
X060254D01*
X058246Y021228D02*
X060254D01*
X058246Y018472D02*
Y021228D01*
X060254Y018472D02*
Y021228D01*
X060713Y018690D02*
X061087D01*
X060713Y019379D02*
X061087D01*
X060713Y018690D02*
Y019379D01*
X061087Y018690D02*
Y019379D01*
X061360Y021713D02*
Y022087D01*
X060671Y021713D02*
Y022087D01*
Y021713D02*
X061360D01*
X060671Y022087D02*
X061360D01*
X060634Y020267D02*
X061166D01*
X060634Y021133D02*
X061166D01*
X060634Y020267D02*
Y021133D01*
X061166Y020267D02*
Y021133D01*
X062833Y021634D02*
Y022166D01*
X061967Y021634D02*
Y022166D01*
Y021634D02*
X062833D01*
X061967Y022166D02*
X062833D01*
X061825Y023332D02*
X062927D01*
X061825Y022781D02*
X062927D01*
Y023332*
X061825Y022781D02*
Y023332D01*
X061967Y023984D02*
Y024516D01*
X062833Y023984D02*
Y024516D01*
X061967D02*
X062833D01*
X061967Y023984D02*
X062833D01*
X065534Y023967D02*
X066066D01*
X065534Y024833D02*
X066066D01*
X065534Y023967D02*
Y024833D01*
X066066Y023967D02*
Y024833D01*
X065534Y018183D02*
X066066D01*
X065534Y017317D02*
X066066D01*
Y018183*
X065534Y017317D02*
Y018183D01*
X063849Y020269D02*
X064951D01*
X063849Y020820D02*
X064951D01*
X063849Y020269D02*
Y020820D01*
X064951Y020269D02*
Y020820D01*
X064833Y018784D02*
Y019316D01*
X063967Y018784D02*
Y019316D01*
Y018784D02*
X064833D01*
X063967Y019316D02*
X064833D01*
X063849Y018026D02*
X064951D01*
X063849Y017474D02*
X064951D01*
Y018026*
X063849Y017474D02*
Y018026D01*
X060867Y017574D02*
Y018126D01*
X061733Y017574D02*
Y018126D01*
X060867D02*
X061733D01*
X060867Y017574D02*
X061733D01*
X061084Y016417D02*
Y017283D01*
X061616Y016417D02*
Y017283D01*
X061084D02*
X061616D01*
X061084Y016417D02*
X061616D01*
X055011Y016934D02*
Y017466D01*
X055878Y016934D02*
Y017466D01*
X055011D02*
X055878D01*
X055011Y016934D02*
X055878D01*
M02*