%FSDAX24Y24*%
%MOIN*%
%SFA1B1*%

%IPPOS*%
%AMD15*
4,1,8,-0.011400,0.031200,-0.011400,-0.031200,0.000000,-0.042700,0.000000,-0.042700,0.011400,-0.031200,0.011400,0.031200,0.000000,0.042700,0.000000,0.042700,-0.011400,0.031200,0.0*
1,1,0.023000,0.000000,0.031200*
1,1,0.023000,0.000000,-0.031200*
1,1,0.023000,0.000000,-0.031200*
1,1,0.023000,0.000000,0.031200*
%
%ADD14R,0.022900X0.085400*%
G04~CAMADD=15~8~0.0~0.0~854.0~229.0~115.0~0.0~15~0.0~0.0~0.0~0.0~0~0.0~0.0~0.0~0.0~0~0.0~0.0~0.0~90.0~230.0~853.0*
%ADD15D15*%
%ADD34R,0.061100X0.053300*%
%ADD35O,0.063100X0.090700*%
%ADD36R,0.047400X0.043400*%
%ADD37R,0.043400X0.047400*%
%ADD38R,0.053300X0.061100*%
%ADD39R,0.039500X0.043400*%
%ADD40R,0.039500X0.039500*%
%ADD41R,0.059200X0.063100*%
%ADD42R,0.043400X0.035600*%
%ADD43R,0.039500X0.039500*%
%ADD44C,0.106400*%
%ADD45C,0.126100*%
%ADD46C,0.038000*%
%ADD47C,0.058000*%
%LNde-130624-1*%
%LPD*%
G54D14*
X061700Y018969D03*
G54D15*
X062200Y018969D03*
X062700D03*
X063200D03*
Y020831D03*
X062700D03*
X062200D03*
X061700D03*
G54D34*
X059750Y023394D03*
Y022706D03*
X060900Y020356D03*
Y021044D03*
X065800Y024056D03*
Y024744D03*
Y018094D03*
Y017406D03*
G54D35*
X058750Y018059D03*
X059750D03*
X058750Y021641D03*
X059750D03*
G54D36*
X060900Y018769D03*
Y019300D03*
G54D37*
X061281Y021900D03*
X060750D03*
G54D38*
X062744Y021900D03*
X062056D03*
Y024250D03*
X062744D03*
X064744Y019050D03*
X064056D03*
X055100Y017200D03*
X055789D03*
G54D39*
X062750Y023450D03*
X062002D03*
X062376Y022663D03*
X064026Y020151D03*
X064774D03*
X064400Y020938D03*
X064774Y018144D03*
X064026D03*
X064400Y017356D03*
G54D40*
X065800Y022105D03*
Y022695D03*
Y019995D03*
Y019405D03*
G54D41*
X060985Y017850D03*
X061615D03*
G54D42*
X060976Y017106D03*
Y016594D03*
X061724Y016850D03*
G54D43*
X057395Y017200D03*
X056805D03*
G54D44*
X068200Y022300D03*
Y024269D03*
X068150Y019869D03*
Y017900D03*
X068154Y015300D03*
Y013300D03*
Y011300D03*
X056150Y018866D03*
Y020834D03*
G54D45*
X063675Y014590D03*
X065053Y011637D03*
X062297D03*
X055801D03*
Y014590D03*
G54D46*
X063654Y018450D03*
G54D47*
X060250Y020950D03*
M02*